<?xml version="1.0" encoding="utf-8"?>
<!-- Generator: Adobe Illustrator 24.2.3, SVG Export Plug-In . SVG Version: 6.00 Build 0)  -->
<svg version="1.1" id="Layer_1" xmlns="http://www.w3.org/2000/svg" xmlns:xlink="http://www.w3.org/1999/xlink" x="0px" y="0px"
	 viewBox="0 0 2834.6 2834.6" style="enable-background:new 0 0 2834.6 2834.6;" xml:space="preserve">
<style type="text/css">
	.st0{clip-path:url(#SVGID_2_);fill:#FCFF76;}
	.st1{clip-path:url(#SVGID_2_);}
	.st2{fill:#F1C5A5;stroke:#232020;stroke-width:34.9954;stroke-linecap:round;stroke-linejoin:round;stroke-miterlimit:10;}
	.st3{fill:#369FF7;stroke:#232020;stroke-width:34.9954;stroke-linecap:round;stroke-linejoin:round;stroke-miterlimit:10;}
	.st4{fill:#232020;stroke:#232020;stroke-width:34.9954;stroke-linecap:round;stroke-linejoin:round;stroke-miterlimit:10;}
	.st5{fill:url(#SVGID_3_);}
	.st6{fill:url(#SVGID_4_);}
	.st7{fill:#FFFFFF;stroke:#232020;stroke-width:34.9954;stroke-linecap:round;stroke-linejoin:round;stroke-miterlimit:10;}
	.st8{fill:#232020;}
	.st9{fill:none;stroke:#232020;stroke-width:34.9954;stroke-linecap:round;stroke-linejoin:round;stroke-miterlimit:10;}
	.st10{clip-path:url(#SVGID_6_);}
	.st11{fill:#FAD8C1;stroke:#232020;stroke-width:34.9954;stroke-linecap:round;stroke-linejoin:round;stroke-miterlimit:10;}
	.st12{fill:url(#SVGID_7_);}
	.st13{fill:url(#SVGID_8_);}
	.st14{fill:#232020;stroke:#232020;stroke-width:19.9973;stroke-linecap:round;stroke-linejoin:round;stroke-miterlimit:10;}
	.st15{fill:#9F7C4F;stroke:#232020;stroke-width:34.9954;stroke-linecap:round;stroke-linejoin:round;stroke-miterlimit:10;}
	.st16{fill:#FFFFFF;}
	.st17{clip-path:url(#SVGID_2_);fill:none;}
</style>
<g>
	<defs>
		<rect id="SVGID_1_" x="0" y="0" width="2834.6" height="2834.6"/>
	</defs>
	<clipPath id="SVGID_2_">
		<use xlink:href="#SVGID_1_"  style="overflow:visible;"/>
	</clipPath>
	<rect x="0" y="0" class="st0" width="2834.6" height="2834.6"/>
	<g class="st1">
		<g>
			<g>
				<g>
					<g>
						<path class="st2" d="M2173.9,2541.4c0-457.3-375.4-328.4-375.4-328.4l42.3,524.2c0,0,23.6,235.1,88.2,374.4
							c0,0-121.1,38.1-109,89.5c0,0,6.8,39.9,85.4,19.2c0,0-90.1,129.4-38.1,151.1c0,0,26.6,21.3,74.2-42c0,0-19.2,104.6,43.9,94.5
							c0,0,47.9-5.7,38.3-81.2c0,0,28.7,99,85,65.8c0,0,49-30.5,0.5-140.3c0,0,73.8,36.4,97.3-10.2c0,0,38.5-43-82.9-124.8
							C2123.6,3133.3,2173.9,2778.3,2173.9,2541.4z"/>
						<path class="st3" d="M569.7,3033c0,0,763.6,636.3,1648.9-162.1l-706,1.4l-631.3-119.6L569.7,3033z"/>
						<g>
							<g>
								<g>
									<g>
										<g>
											<g>
												<path class="st2" d="M1763.4,2859.6c-375.2-87.9-322.1,360.2-322.1,360.2c44.5,263.7,42.4,535.9,42.4,535.9
													c-156.1,234.8,20.3,240.8,20.3,240.8c332.8-10.5,349.9-587.5,349.9-587.5s159.6-375.2,352.8-559.1L1763.4,2859.6z"/>
											</g>
										</g>
									</g>
								</g>
							</g>
							<path class="st4" d="M1428.6,3867.3c0,0,58.1,70,222.5,77.7c0,0-89.5,76.5-174.8,47.3
								C1476.4,3992.3,1388.9,3970.6,1428.6,3867.3z"/>
						</g>
						<g>
							<g>
								<g>
									<g>
										<g>
											<g>
												<path class="st2" d="M1080.2,2852.7c375.2-87.9,321.8,360.1,321.8,360.1c-44.4,263.8-42.1,535.9-42.1,535.9
													c155.8,234.8-20.3,240.7-20.3,240.7c-332.7-10.5-350.1-587-350.1-587s-117.2-260.3-310.9-444.2L1080.2,2852.7z"/>
											</g>
										</g>
									</g>
								</g>
							</g>
							<path class="st4" d="M1415.1,3860.3c0,0-58.4,70.3-222.7,77.7c0,0,89.2,76.6,174.6,46.9
								C1367,3984.9,1454.7,3963.5,1415.1,3860.3z"/>
						</g>
						<path class="st3" d="M1590.4,1988.1l-640.2,52.5c20.5,202.3-115.1,547.3-115.1,547.3c-236,199.2-265.4,443.8-265.4,443.8
							c314.7-8.1,794.4,166.1,794.4,166.1c630.6,184.7,855.7-327.2,855.7-327.2S2062.2,2316.2,1590.4,1988.1z"/>
					</g>
				</g>
				<g>
					<g>
						<g>
							<g>
								<g>
									<g>
										<g>
											<g>
												<g>
													<g>
														<g>
															<g>
																<g>
																	<g>
																		<g>
																			<g>
																				<g>
																					<g>
																						<g>
																							<g>
																								<g>
																									<path class="st2" d="M597.4,1380.6c-70.7,447.1,235,866.2,681.7,936.5c447.1,70.3,866.3-234.8,936.6-681.7
																										c70.9-446.7-234.4-866-681.5-936.5C1087.4,628.4,667.9,933.6,597.4,1380.6z"/>
																								</g>
																							</g>
																						</g>
																					</g>
																				</g>
																			</g>
																		</g>
																	</g>
																</g>
															</g>
														</g>
													</g>
												</g>
											</g>
										</g>
									</g>
									
										<radialGradient id="SVGID_3_" cx="7014.0181" cy="-1476.7361" r="34.4795" gradientTransform="matrix(4.9497 0.7064 -0.7065 4.949 -34746.6602 3837.614)" gradientUnits="userSpaceOnUse">
										<stop  offset="0" style="stop-color:#FFC1BB"/>
										<stop  offset="1" style="stop-color:#F1C5A5"/>
									</radialGradient>
									<path class="st5" d="M1182.1,1522.1c-21.7,93-114,150.8-206.7,129.9c-92.6-21.4-150.6-113.5-129.5-206.1
										c21.4-93,113.4-151.1,206.6-130C1145.2,1337.2,1202.8,1429.6,1182.1,1522.1z"/>
									
										<radialGradient id="SVGID_4_" cx="7172.5459" cy="-1471.869" r="34.4712" gradientTransform="matrix(4.9497 0.7064 -0.7065 4.949 -34746.6602 3837.614)" gradientUnits="userSpaceOnUse">
										<stop  offset="0" style="stop-color:#FFC1BB"/>
										<stop  offset="1" style="stop-color:#F1C5A5"/>
									</radialGradient>
									<path class="st6" d="M1963.2,1658.6c-22.2,92.7-113.9,150.1-206.7,129.4c-92.8-21.5-150.5-113.5-129.4-206.3
										c20.8-93.1,113.7-151,206.2-129.7C1926,1472.8,1984.2,1565.5,1963.2,1658.6z"/>
									<g>
										<path class="st7" d="M1062.6,1444.1c0,0-240.1-14-173-142.8c0,0,35.9-93.3,204.8-66.1c0,0,186.7,31.7,190.8,147.3
											C1285.1,1382.5,1294.7,1501.9,1062.6,1444.1z"/>
										<path class="st8" d="M1100.8,1329.6c0,13.5-11,24.5-24.6,24.4c-13.6,0-24.5-11.1-24.5-24.6c0-13.6,11.1-24.5,24.6-24.5
											C1089.9,1305,1100.8,1316,1100.8,1329.6z"/>
									</g>
									<g>
										<path class="st7" d="M1766.2,1550.5c0,0,228.4,75.2,213.4-69.2c0,0,0.9-99.9-166.1-136.7c0,0-185.3-39.2-231.6,66.9
											C1581.9,1411.4,1529.1,1518.9,1766.2,1550.5z"/>
										<path class="st8" d="M1764.4,1430.3c-4.9,12.6,1.3,26.8,13.9,31.7c12.7,5,26.9-1.3,31.8-13.8c5-12.6-1.3-26.9-13.9-31.8
											C1783.6,1411.5,1769.4,1417.7,1764.4,1430.3z"/>
									</g>
								</g>
								<g>
									<path class="st4" d="M396.5,772.9c154.2-282.2,354.8-263.8,354.8-263.8c196.6-511.3,901.4-263.5,901.4-263.5
										c500.1,18.2,616.8,468,616.8,468c728.6,467.3,336.7,841.1,336.7,841.1c-77.8,325.3-376.1,397.3-507.9,390.8
										c126.7-214.5,157.6-482.2,66.8-728l-588.5-102l-47.3-197.2l-103.4,173.8l-659.9-69.8c-156.4,214.4-213.8,502.3-128.7,764.8
										c-27.3,0.4-58.9-8.2-58.9-8.2c-473.6-121.6-452.8-615.9-452.8-615.9C60.3,806.3,396.5,772.9,396.5,772.9z"/>
								</g>
							</g>
						</g>
					</g>
				</g>
				<path class="st9" d="M1651.4,1691.9c-26.7,136.2-158.7,225-295,198.3c-136.2-26.7-225-158.7-198.3-295"/>
			</g>
			<path class="st2" d="M937.9,2179.3c0,0,57.6,209.9-35.7,396.4c0,0,118.5-27.2,309-227.3c0,0,71.9-171,141.9-221.5
				c0,0,62.2-151.6,124.4-128.2c0,0,69.9,15.6-42.8,151.6c0,0,62.2-15.5,58.3,35c0,0,58.3-23.3,46.6,35c0,0,97.2-3.9,31.1,116.6
				c0,0-11.7,77.7-58.3,132.1c0,0-213.8,404.2-616,497.4c0,0-139.9,46.6-239-81.6c0,0-128.3-139.9-35-431.4
				C622.3,2453.2,681.3,2173.4,937.9,2179.3z"/>
		</g>
		<g>
			<path class="st3" d="M1326.6,1170.3c0,0-866.3-6.8-589.1-378.2c0,0,303.9-660.6,968.4-486.1c0,0,465.2,140,537.8,495
				c0,0,177.6,623.9-239.4,488.3C2004.4,1289.3,1521.6,1253,1326.6,1170.3z"/>
			<g>
				<defs>
					<path id="SVGID_5_" d="M1326.6,1170.3c0,0-866.3-6.8-589.1-378.2c0,0,303.9-660.6,968.4-486.1c0,0,465.2,140,537.8,495
						c0,0,177.6,623.9-239.4,488.3C2004.4,1289.3,1521.6,1253,1326.6,1170.3z"/>
				</defs>
				<clipPath id="SVGID_6_">
					<use xlink:href="#SVGID_5_"  style="overflow:visible;"/>
				</clipPath>
				<g class="st10">
					<g>
						<g>
							<g>
								<g>
									<g>
										<g>
											<g>
												<g>
													<g>
														<path class="st4" d="M1192.1,870.9c-32.1,180.7,88.5,353.2,269.2,385c180.5,32.1,352.9-88.5,384.7-269.3
															c32.2-180.3-88.4-352.8-269-384.7C1396.5,570,1224,690.5,1192.1,870.9z"/>
														<path class="st11" d="M1770.1,1054.4c-5,28.8,14.1,56.2,43,61.4c28.6,5.1,56-14,61.3-42.8c5-28.9-14.4-56.5-43-61.4
															C1802.8,1006.6,1775.2,1025.7,1770.1,1054.4z"/>
														<path class="st11" d="M1143.5,902.7c-5,28.9,14.3,56.2,43.1,61.4c28.6,5.1,56-14.2,61.2-42.9
															c5-28.8-14.2-56.4-42.9-61.3C1176.1,854.9,1148.6,874.1,1143.5,902.7z"/>
														<path class="st11" d="M1186.2,911.2c-32.1,180.7,88.5,352.8,269.2,385c180.6,32,352.9-88.5,385-269.2
															c31.9-180.6-88.7-352.9-269.2-385C1390.3,610,1218.3,730.7,1186.2,911.2z"/>
														<path class="st4" d="M1839,908.5c0,0-57-151.9-197.8-121c0,0-92.8,26.6-185-34.6c0,0-111.2-88.5-218.1,30.1
															c0,0,133.1-217.3,399.8-122.8C1637.9,660.2,1801.5,719.4,1839,908.5z"/>
														
															<radialGradient id="SVGID_7_" cx="280.6407" cy="1503.2104" r="14.4028" gradientTransform="matrix(-4.9232 -0.8713 -0.8714 4.9225 4362.6694 -6045.6968)" gradientUnits="userSpaceOnUse">
															<stop  offset="0" style="stop-color:#F6C19C"/>
															<stop  offset="0.6332" style="stop-color:#F9CFB3"/>
															<stop  offset="0.9608" style="stop-color:#FAD8C1"/>
															<stop  offset="1" style="stop-color:#F8D5BF"/>
														</radialGradient>
														<path class="st12" d="M1600.2,1096.8c-6.7,39,19.4,76.3,58.5,83.4c39.2,6.9,76.4-19.2,83.4-58.4
															c6.8-39.3-19-76.3-58.4-83.3C1644.7,1031.5,1607.3,1057.6,1600.2,1096.8z"/>
														
															<radialGradient id="SVGID_8_" cx="353.8834" cy="1498.8629" r="14.3932" gradientTransform="matrix(-4.9232 -0.8713 -0.8714 4.9225 4362.6694 -6045.6968)" gradientUnits="userSpaceOnUse">
															<stop  offset="0" style="stop-color:#F6C19C"/>
															<stop  offset="0.6332" style="stop-color:#F9CFB3"/>
															<stop  offset="0.9608" style="stop-color:#FAD8C1"/>
															<stop  offset="1" style="stop-color:#F8D5BF"/>
														</radialGradient>
														<path class="st13" d="M1243.5,1011.8c-7,38.8,19.1,76.2,58,83.1c39.3,6.8,76.6-19.1,83.7-58.3
															c6.8-39.3-19.2-76.4-58.5-83.6C1287.6,946.3,1250.3,972.6,1243.5,1011.8z"/>
													</g>
												</g>
											</g>
										</g>
									</g>
								</g>
							</g>
						</g>
						<g>
							<path class="st14" d="M1546.8,979.3c-0.7-33.6,11.9-65.7,35.1-89.5c23.2-24.2,54.4-37.6,87.8-38.3c4.2-0.3,8.1-0.1,12.2,0.3
								c64.6,4.8,114.4,57.6,115.5,122.5c0.8,33.4-11.5,65.1-34.8,89.2c-23.1,24.3-54.6,37.7-88,38.3c-4,0.2-8.2,0-12-0.3
								C1597.9,1096.7,1548.2,1044,1546.8,979.3z M1669.9,862.8c-30.2,0.7-58.8,13.1-79.8,34.8c-21,21.9-32.5,50.8-31.8,81.4
								c1.2,58.9,46.1,106.8,104.8,111.4c3.8,0.3,7.3,0.3,11.1,0.3c30.5-0.5,58.9-12.8,80-34.8c21-21.9,32.3-50.8,31.8-81.4
								c-1.2-58.9-46.2-106.7-105-111C1677.3,863,1673.6,862.9,1669.9,862.8z"/>
							<path class="st14" d="M1247.3,908c-1.2-69.1,53.9-126.4,122.9-127.7c4-0.2,8.1,0.1,12,0.3c64.6,5,114.4,57.8,115.6,122.6
								c0.8,33.7-12,65.1-35.1,89.4c-23.1,24.2-54.3,37.9-87.7,38.5c-4.2-0.3-8.3-0.2-12.3-0.4
								C1298.2,1025.5,1248.5,972.8,1247.3,908z M1370.6,791.7c-63,1.2-113,53.4-112,116.2c1.1,58.9,46.3,106.9,104.9,111.2
								c3.6,0.4,7.4,0.2,11.3,0.3c30.4-0.6,58.7-12.8,79.8-34.8c21.1-22,32.7-50.8,32-81.3c-1.2-58.9-46.3-106.9-105.1-111.3
								C1377.7,791.5,1374.1,791.7,1370.6,791.7z"/>
							<line class="st9" x1="1496.7" y1="929.5" x2="1554.3" y2="943.6"/>
						</g>
						<g>
							<path class="st15" d="M1187.7,586.4c-21.7,83.6,134.4,196.8,349.5,253c214.7,55.8,406.5,33.2,428.3-50.2
								c21.6-84-134.7-197-349.4-253.1C1401.2,480.3,1209.5,502.7,1187.7,586.4z"/>
							<path class="st15" d="M1838.9,681.9c0,0-33.1-410-187.7-310.2c0,0-62.7,54.4-159.4,12c0,0-170-95.4-196.2,284.3
								C1295.7,668.1,1597.2,874.6,1838.9,681.9z"/>
							<path class="st4" d="M1820.9,575.2c0,0-231.7,149-507.3-18c0,0-16.9,93.2-14.3,112.1c0,0,285.4,202.4,536.2,14
								C1835.5,683.2,1830.7,621.8,1820.9,575.2z"/>
						</g>
						<g>
							<g>
								<path class="st9" d="M1447.2,1128.7c0,0.2-0.1,0.5-0.2,0.7c-4.1,16.7,6,33.5,22.7,37.6c16.7,4.1,33.5-6.1,37.6-22.7
									c0-0.2,0.1-0.5,0.2-0.7"/>
							</g>
						</g>
						<g>
							<path class="st8" d="M1375.9,966.9c-0.7,6.3-6.4,10.9-12.7,10.2c-6.3-0.6-10.9-6.3-10.3-12.7c0.7-6.3,6.3-10.9,12.7-10.2
								C1372,954.9,1376.6,960.6,1375.9,966.9z"/>
							<path class="st8" d="M1680.9,1036.9c-0.6,6.3-6.3,10.9-12.7,10.2c-6.3-0.7-10.9-6.3-10.3-12.7c0.7-6.3,6.3-10.9,12.7-10.3
								C1677,1024.9,1681.6,1030.6,1680.9,1036.9z"/>
						</g>
					</g>
					<line class="st9" x1="1790.1" y1="1001.7" x2="1843.8" y2="1015"/>
					<line class="st9" x1="1201" y1="858.1" x2="1255.3" y2="870.6"/>
					<path class="st16" d="M1746.2,670c0,0,35.6,68.2,23.7,99.5c0,0-8.6,28-28.3,17.9c0,0-23.9-10.2-7.5-67.9L1746.2,670z"/>
				</g>
				
					<use xlink:href="#SVGID_5_"  style="overflow:visible;fill:none;stroke:#232020;stroke-width:34.9954;stroke-linecap:round;stroke-linejoin:round;stroke-miterlimit:10;"/>
			</g>
		</g>
	</g>
	<rect x="0" y="0" class="st17" width="2834.6" height="2834.6"/>
</g>
</svg>
