<svg id="Layer_3" data-name="Layer 3" xmlns="http://www.w3.org/2000/svg" viewBox="0 0 2000 2000"><defs><style>.cls-1{fill:#fff;}.cls-2{fill:#ded1c9;}.cls-3{fill:#c6ab99;}.cls-4{fill:#d6baa7;}.cls-5{fill:#f09e93;}.cls-6{fill:#eb8873;}.cls-7{fill:#d4815c;}.cls-8{fill:#f3a799;}.cls-9{fill:#5f282e;}.cls-10{fill:#22040c;}.cls-11{fill:#1c0909;}.cls-12{fill:#fdfdfd;}</style></defs><rect class="cls-1" width="2000" height="2000"/><path class="cls-2" d="M1365.76,1489.59s15.83,8.94,29.58,4.81,26.83-15.13,30.27-32.33-2.06-83.24,5.5-99.06,47.47-72.23,97-59.16,75,65.35,76.36,106.63c0,0-8.26,21.32,7.56,16.51s29.58-44,35.77-67.42,28.21,9.63,16.51,62.6-34.39,81.17-23.39,97,55.72-23.39,55.72-23.39-20,41.27-26.82,54.34-61.92,61.91-79.11,75.67-64,39.36-107.47,49.45-112.81,6.12-112.81,6.12l-37.68-4.67-8.18-12.45s32.4-40.36,40.66-72.46S1365.76,1489.59,1365.76,1489.59Z"/><path class="cls-3" d="M1361.64,1481.1s21.32,21.1,31.87,16.05,20.18-7.79,25.68-19.72,4.59-32.56,17.43-41.27,37.6,1.83,40.35,28.43-24.76,60.54-25.68,106.86,67.42,18.8,80.26,21.09,22,12.84,15.59,32.56-44,42.65-54.57,46.78-97.23,13.3-119.7,9.63-40.12-4.82-40.12-4.82l-7.28-14s32.27-38.53,39.61-78.88S1361.64,1481.1,1361.64,1481.1Z"/><path class="cls-2" d="M735.73,1769.41s18.34,16.51,27.51,16.81,25.68,5.2,41,4,27.82,6.72,45.25.3,32.41-25.68,31.79-44.63,6.43-210.65-54.11-318c0,0,45.86,66,77,89s47.7,34.86,47.7,34.86L951,1770.94l-26,.3s-31.79,22.32-41,25.38-52.28,11.92-72.77,9.17-34.55-2.45-48.92-8.56S737.25,1782.55,735.73,1769.41Z"/><path class="cls-2" d="M618,1765.89s-22-16.51-16-41.5c0,0,11.46-11.24,11-25s-13.75-9.63-9.63-28.89,11.47-30.26,11.47-30.26-35.31,16.51-42.19,22.47c0,0-38.07-37.61-38.07-57.79s-6.87-43.1-6.87-43.1,39.43,50.9,72.45,6S613,1480.64,613,1480.64s35.78,14.68,56.41,48.16,57.79,28,57.79,28l31.64,139.41s-18.8,11-21.56,22.48-12.84,33.47-12.84,33.47-46.77,15.14-48.61,15.6S629.94,1771.85,618,1765.89Z"/><path class="cls-2" d="M477.46,950l-82.78-17s34.4,53.65,96.77,80.25,89.42,36.23,85.3,36.69-94.93-17.89-94.93-17.89S576.75,1083,685,1108.72s199.95,40.36,251.32,38.52l15.59.92,1.83,53.88s-156.76-6.19-190.16-8.94-60.23,6.42-68.49,11.47-22.93,47.69-30.72,65.58-21.1,93.09-21.1,93.09,2.29-89.42,14.22-124.28,36.23-61.91,36.23-61.91-118.32-33.48-178.4-65.58l-43.11-26.14,76.59,6.42-92.18-50.9L385.51,984.9l43.11,3.67s-50.45-41.74-55.95-78.42Z"/><path class="cls-4" d="M474,713.41s-32.79-55.49-38.29-182.07S475.62,292,475.62,289.89s40.59-84.61,40.59-84.61S585.69,231.42,638,267.19,769.36,377.25,769.36,377.25l14.44,17.2L679.93,446l-34.4-1.37-20.4,12.61,8.25,7.34s-56,47.46-67,61.22-57.1,90.8-64.67,112.82S474,713.41,474,713.41Z"/><path class="cls-5" d="M527.22,581.33S513,519,512.08,480.9s0-78.42,7.8-100.89,22.93-44,28-48.62,33,4.59,33,4.59,55,35.31,75.21,50a173.38,173.38,0,0,1,33.48,32.56s-38.83-4.74-66,10.24c0,0-7.49,6.42-6.11,12.08a57.49,57.49,0,0,1,20-5.66c10.7-.76,6.73,4.28,6.73,4.28l-19,17.81,2.75,7.34-40.82,36.46-36.23,45.17Z"/><path class="cls-6" d="M554.43,407.68l32.63,93.4,48.39-39.9-9.94-3.36L649.66,437s-17.88-6.12-32.25,3.82a42.75,42.75,0,0,1,17-17.43c11.92-6.57,47.23-7,47.23-7l-45.55-44.64S575.52,325.13,550,330.63l-13.3,12.54Z"/><path class="cls-7" d="M522.17,586.38s-21.09-107.32-11.46-172.9,28-79.33,42.65-84.38c0,0-20.18,12.38-30.27,52.28s-9.63,82.55-7.8,101.35,10.55,83,10.55,83l3.21,12.84Z"/><path class="cls-8" d="M948.44,817.28s-11.47-5.5-17.89-11.92-14-1.15-16.73-6.42.45-12.84,4.35-14.22S944.54,782,944.54,782l4.82-.46v35.62Z"/><path class="cls-8" d="M905.79,936.52s4.13,20.86,13.53,29.8,25.91,17.2,25.91,17.2L950,984.9l-.45-68.79s-28,7.34-35.09,11.92S905.79,936.52,905.79,936.52Z"/><path class="cls-9" d="M907.62,931.7s-11.23-30.27-6.19-42.19,22.25-12.84,29.58-21.78,16.74-37.61,16.74-37.61l2.52,17.43L950,915s-21.09,3.67-27.51,8.72A60,60,0,0,1,907.62,931.7Z"/><path class="cls-10" d="M937.51,1763c-4.28,0-6.42-4.59-6.42-4.59,3.36-9.17,3.06-50.14,3.06-67.57s-8.87-70.31-23.85-116.48S881,1507.09,881,1507.09s14.67,37.91,15.29,39.74,18.65,67,24.76,102.12,5.2,96.76-3.36,115.72-31.8,24.76-31.8,24.76,3.82-17.42,2.91-24-4-6.72-4-6.72.15,13.45-2,20.79-7.64,13.3-17.88,16.81-29.2,5.35-32.26,1.68-5.65-19.1-5.65-28.12,6.11-27.06,6.11-27.06c-6.57,5.66-9.93,19.87-11.31,30.42s5.12,26.83,4.2,26.83-31.41-.46-34.39-1.15-14.45-20-17.2-29.58,6-31.87,6-31.87c-5.27,3.9-8,11.23-12.15,25.68s12.38,33.48,12.38,33.48a122.35,122.35,0,0,1-23.84-7.8c-12.16-5.5-19.72-21.32-22.48-28.43s-1.6-22.24,4.36-36.92S756.29,1698,756.29,1698l-14.45,10.78c-13.76,11-12.15,34.62-19.72,38.75S698,1754.2,698,1754.2c2.76-2.3,3.67-9.4,3.44-16s-4.58-8.49-4.58-8.49c1.6,12.38-3.67,22.7-8.94,26.37s-26.6,5.73-31.65,3.21-11.23-24.07-8.48-41,16-25.91,16-25.91-7.57-2.3-18.12,18.11,2.3,49.3,2.53,50.22-11.93,5-28.44-1.61S602,1724.39,602,1724.39c-8.94,14.44,6.19,34.39,6.19,34.39-12.84-1.37-36-11-41.73-22s-9.4-33.71.23-57.09,46.16-37.15,46.16-37.15c-14.67,2.44-36.69,16.81-36.69,16.81s-3.66-1.83-23.84-36.07-19.57-87.44-19.57-87.44,1.83-63.9,27.82-113.43S634.76,1333,634.76,1333c-.69,23.39,11.46,63.75,11.46,63.75s-4.12-17.89,2.75-86,39.67-120.84,45.64-125.27,68.94,7.64,68.94,7.64-117.1-33-166.93-53.2-101.05-49.29-101.05-49.29l73.15,5.73s-50.9-23.85-84.38-45.17-84.61-63.06-84.61-63.06l49.52,9.4s-43.56-36-53.19-47-18.12-33.7-18.12-33.7,1.61,1.6,12.38,6.19,87.14,27,87.14,27-8.71-8-19-19.26-25-39.44-25-39.44l20.64,3.44s-32.79-27.28-41.5-37.6-20.64-53-20.64-53c23.16,5,120.38,54.34,120.38,54.34l-48.15-34.39s-1.38,7.57,1.6-31.87,15.37-88,29.58-128.18,26.14-60.54,51.37-103.19a336.37,336.37,0,0,1,72.23-85.37c17-14.22,46.47-17.89,38.67-18.65s-31,3.82-23.54-2.75S658.22,447,666,444.52s19,0,13.76-4.9-29.35-9.63-43-8.4-19.41,9.63-19.41,9.63c3.21-2.91,23.69-3.06,23.69-3.06L618,460.41l7.34,3.06s-56,48.15-87.6,93.1S474,699.19,474,699.19a84.25,84.25,0,0,1-11.47-25.68C458.43,657.92,446,563,446,563s-6.87-97.23,11.47-187.11,61-161.43,61-161.43,6.88-8.71,91.72,41.73S774.4,392.85,774.4,392.85l-18.11,16,21.32-9.79s33.63-14.06,72.15-30.87c12.21-5.33,27.08-9.49,41.71-12.69,3.56-1.74,7.18-3.35,10.63-5.29a31.85,31.85,0,0,0,5.4-3.55c.52-.45,1-.94,1.51-1.43-57.07,12-125.21,40.92-125.21,40.92s-43.33-51.59-123.13-110.07-145.84-78.42-145.84-78.42-68.1,114.19-81.17,264.16,31.8,253.37,31.8,253.37c-6.12,28.44-10.09,104-10.09,104-56.87-27.82-73.68-22.32-73.68-22.32,24.15,94.47,65.42,135.44,65.42,135.44l-81.93-28.13c4.89,31.5,48,78,48,78l-34.86-1.84c33,55.65,155,106.7,155,106.7L460,1080.9s27.82,22.93,83.46,47.39,144.31,54,144.31,54-4.13,6.65-25.23,41-27.28,102.27-27.28,102.27c-27.29,14.9-65.35,62.83-65.35,62.83s-59.62,78.42-48.16,166.47S568,1664.31,568,1664.31l-12.84,18.8s-10.09,23-.92,48.08,23.24,30.88,68.34,39.75,102.84-14.45,102.84-14.45c.34,3.21,4.24,13.53,4.47,14.14,7.51,20,31.79,32.1,53.81,36.08s45.86,3.36,83.16-2.14,58.7-28.44,59.92-28.74,23.54,1.22,23.54,1.22l-.61-13.76S941.79,1763,937.51,1763Z"/><path class="cls-10" d="M758.81,1694.35l-65.58-305.88L740.47,1648s-50-23.39-98.6-6.88c0,0,63.28-9.17,98.14,11,0,0,3,1.83,4.58,6.88S756.67,1698.48,758.81,1694.35Z"/><path class="cls-10" d="M605.79,1473.76s23.85,18.65,37.3,59.93,8.56,69.09,8.56,69.09,5.81-38.82-.92-67S605.79,1473.76,605.79,1473.76Z"/><path class="cls-10" d="M623.52,428.77S648,409.51,672.75,414.4c0,0-57.18-66-112.51-84.08,0,0,63.28,13.15,128.1,81.94l9.78,10.4s-32.71-5.2-45.25-.92S641.87,423.27,623.52,428.77Z"/><path class="cls-11" d="M635.9,815.22s-29.8-14.22-63.74-5.51c0,0,6-12.84,40.81-14.67,0,0-14.67-72.92,34.4-121.07s105.48-34.4,131.16-22,45.4,46.31,52.74,57.78c0,0-34.86-45.4-83-50s-85.76,24.31-97.68,45.86C650.58,705.61,609.31,750.55,635.9,815.22Z"/><path class="cls-10" d="M760.64,668.92S701,660.21,670.3,720.75s-8.26,122,29.81,134.82,104.56-11.46,116-31.64,28.44-44,19.26-83.92S794.12,675.34,760.64,668.92Z"/><path class="cls-12" d="M756.75,672.13a41.44,41.44,0,0,0-29.36,29.58c-6.64,24.77,5.51,56.64,22.71,57.1s33.7-20.41,35.08-38.52S786.55,672.13,756.75,672.13Z"/><path class="cls-11" d="M950.81,919.47c-.61.15-23.54-.92-41.28,17.73,0,0,.92,11.62,11.93,25.38s21.55,17.73,29,17.73l.31,7.19s-18.5,1.83-36.08-21.56S897.46,893,897.46,893s-30.27,6.26-47.08-9.94S841.51,855,844,854.35s-.31,13.15,8.25,18.65,20.18,16.51,46.17,8.56,36.38-21.71,40.66-30.88,6.42-30.88,6.42-30.88-10.78.92-17.66-11.92c0,0-15.82-2.52-18.11-10.32s0-14,12.38-17.88,27.75-2.53,27.75-2.53l.22,8.26s-18.34-1.84-29.57,2.52-2.07,11,.68,11.69,9.86,0,11.47,1.61,1.6,7.57,6,9.63,11,2.52,11,2.52l.45,19.49s-2.52,31.65-26.59,44.26l-19.27,11.69s-.91,27.75,4.82,38.75c0,0,18.57-10.7,35.69-14.06l5.81-.15Z"/><ellipse class="cls-4" cx="610.45" cy="877.7" rx="57.78" ry="27.86"/><path class="cls-2" d="M837.23,678.1c-2.29-.92-42.19-58.25-63.75-74.3,0,0,20.64,6.88,42.2,31.19,0,0-3.21-13.3,4.12-11.47S837.23,678.1,837.23,678.1Z"/><path class="cls-10" d="M491.45,885.61s-125.2-72.23-309.56-97c0,0-70.16-6.42-110.52-.92,0,0,0,10.09,30.27,11S242,806,324.52,828.06,463.93,887.22,491.45,885.61Z"/><path class="cls-10" d="M519.71,928.89s-127-39.7-247.59-35.41-160.68,53.39-160.68,53.39S115.16,952,151,929.48s135.33-33.29,188.26-29.78S519.71,928.89,519.71,928.89Z"/><path class="cls-2" d="M1162.36,1769.41s-18.35,16.51-27.52,16.81-25.68,5.2-41,4-27.82,6.72-45.25.3-32.4-25.68-31.79-44.63-6.42-210.65,54.11-318c0,0-45.86,66-77,89s-47.7,34.86-47.7,34.86l.92,219.21,26,.3s31.79,22.32,41,25.38,52.28,11.92,72.76,9.17,34.55-2.45,48.92-8.56S1160.83,1782.55,1162.36,1769.41Z"/><path class="cls-2" d="M1280.06,1765.89s22-16.51,16-41.5c0,0-11.46-11.24-11-25s13.76-9.63,9.63-28.89-11.47-30.26-11.47-30.26,35.32,16.51,42.2,22.47c0,0,38.06-37.61,38.06-57.79s6.88-43.1,6.88-43.1-39.44,50.9-72.46,6-12.84-87.14-12.84-87.14-35.77,14.68-56.41,48.16-57.78,28-57.78,28l-31.65,139.41s18.81,11,21.56,22.48,12.84,33.47,12.84,33.47,46.78,15.14,48.61,15.6S1268.14,1771.85,1280.06,1765.89Z"/><path class="cls-2" d="M1420.62,950l82.78-17s-34.39,53.65-96.76,80.25-89.43,36.23-85.3,36.69,94.93-17.89,94.93-17.89-94.93,50.91-203.16,76.59-199.95,40.36-251.31,38.52l-15.6.92L944.37,1202s156.76-6.19,190.16-8.94,60.23,6.42,68.49,11.47,22.93,47.69,30.73,65.58,21.09,93.09,21.09,93.09-2.29-89.42-14.22-124.28-36.23-61.91-36.23-61.91,118.32-33.48,178.4-65.58l43.11-26.14-76.59,6.42,92.18-50.9,71.08-55.95-43.1,3.67s50.44-41.74,55.94-78.42Z"/><path class="cls-4" d="M1424.06,713.41s32.79-55.49,38.3-182.07-39.9-239.38-39.9-241.45-40.59-84.61-40.59-84.61-69.48,26.14-121.76,61.91-131.38,110.06-131.38,110.06l-14.45,17.2L1218.15,446l34.4-1.37L1273,457.28l-8.26,7.34s56,47.46,67,61.22,57.09,90.8,64.66,112.82S1424.06,713.41,1424.06,713.41Z"/><path class="cls-5" d="M1370.87,581.33S1385.08,519,1386,480.9s0-78.42-7.8-100.89-22.93-44-28-48.62-33,4.59-33,4.59-55,35.31-75.21,50a173.38,173.38,0,0,0-33.48,32.56s38.83-4.74,66,10.24c0,0,7.49,6.42,6.12,12.08a57.59,57.59,0,0,0-20-5.66c-10.7-.76-6.73,4.28-6.73,4.28l19,17.81-2.76,7.34L1311,501.08l36.23,45.17Z"/><path class="cls-6" d="M1343.66,407.68,1311,501.08l-48.38-39.9,9.93-3.36L1248.42,437s17.89-6.12,32.26,3.82a42.83,42.83,0,0,0-17-17.43c-11.93-6.57-47.24-7-47.24-7L1262,371.75s60.53-46.62,86.06-41.12l13.3,12.54Z"/><path class="cls-7" d="M1375.91,586.38s21.1-107.32,11.47-172.9-28-79.33-42.65-84.38c0,0,20.17,12.38,30.26,52.28s9.63,82.55,7.8,101.35-10.55,83-10.55,83L1369,578.58Z"/><path class="cls-8" d="M949.64,817.28s11.47-5.5,17.89-11.92,14-1.15,16.74-6.42-.46-12.84-4.36-14.22S953.54,782,953.54,782l-4.81-.46v35.62Z"/><path class="cls-8" d="M992.29,936.52s-4.12,20.86-13.53,29.8-25.91,17.2-25.91,17.2L948,984.9l.46-68.79s28,7.34,35.08,11.92S992.29,936.52,992.29,936.52Z"/><path class="cls-9" d="M990.46,931.7s11.23-30.27,6.19-42.19-22.24-12.84-29.58-21.78-16.74-37.61-16.74-37.61l-2.52,17.43L948,915s21.09,3.67,27.51,8.72A60,60,0,0,0,990.46,931.7Z"/><path class="cls-10" d="M1532.9,904.18,1451,932.31s41.27-41,65.42-135.44c0,0-16.81-5.5-73.68,22.32,0,0-4-75.51-10.09-104,0,0,44.87-103.41,31.8-253.37s-81.17-264.16-81.17-264.16-66,19.95-145.84,78.42S1114.28,386.2,1114.28,386.2s-68.54-29.05-125.71-41a1.92,1.92,0,0,0-.17.13c-.59.49-1.33,1.16-1.29,2a3.13,3.13,0,0,0,1.36,2.08,11.41,11.41,0,0,0,2.49,1.43c1.95.88,4,1.42,6,2.32l1.45.7c17.16,3.38,35.43,8.06,49.94,14.4,38.52,16.81,72.15,30.87,72.15,30.87l21.33,9.79-18.12-16s79.34-86.22,164.18-136.67,91.72-41.73,91.72-41.73,42.65,71.54,61,161.43S1452,563,1452,563s-12.38,94.93-16.51,110.52a84.25,84.25,0,0,1-11.47,25.68s-32.1-97.68-63.74-142.62-87.59-93.1-87.59-93.1l7.33-3.06L1257,437.79s20.49.15,23.7,3.06c0,0-5.81-8.41-19.42-9.63s-37.76,3.51-43,8.4,6,2.45,13.75,4.9,24.46,3.05,32,9.63-15.74,2-23.54,2.75,21.71,4.43,38.68,18.65a336.78,336.78,0,0,1,72.23,85.37c25.22,42.65,37.14,63.06,51.36,103.19s26.6,88.74,29.58,128.18,1.6,31.87,1.6,31.87l-48.15,34.39s97.22-49.3,120.38-54.34c0,0-11.92,42.65-20.63,53s-41.51,37.6-41.51,37.6l20.64-3.44s-14.68,28.21-25,39.44-19,19.26-19,19.26,76.36-22.47,87.14-27,12.38-6.19,12.38-6.19-8.48,22.7-18.11,33.7-53.2,47-53.2,47l49.53-9.4s-51.14,41.73-84.61,63.06-84.39,45.17-84.39,45.17l73.15-5.73s-51.21,29.12-101,49.29-166.94,53.2-166.94,53.2,63-12.07,69-7.64,38.75,57.17,45.63,125.27,2.75,86,2.75,86,12.15-40.36,11.46-63.75c0,0,48.23,39.9,74.22,89.43s27.82,113.43,27.82,113.43.61,53.2-19.56,87.44-23.85,36.07-23.85,36.07-22-14.37-36.69-16.81c0,0,36.54,13.76,46.17,37.15s6,46.08.23,57.09-28.9,20.64-41.74,22c0,0,15.14-20,6.19-34.39,0,0-1.37,28-17.88,34.62s-28.66,2.52-28.43,1.61,13.07-29.81,2.52-50.22-18.12-18.11-18.12-18.11,13.3,8.94,16,25.91-3.43,38.52-8.48,41-26.37.46-31.64-3.21-10.55-14-9-26.37c0,0-4.35,1.84-4.58,8.49s.69,13.75,3.44,16c0,0-16.51-2.52-24.08-6.65s-6-27.75-19.72-38.75L1141.8,1698s11.69,10.78,17.65,25.45,7.11,29.81,4.36,36.92-10.32,22.93-22.47,28.43a122.56,122.56,0,0,1-23.85,7.8s16.51-19,12.38-33.48-6.88-21.78-12.15-25.68c0,0,8.71,22.24,6,31.87s-14.21,28.89-17.2,29.58-33.47,1.15-34.39,1.15,5.58-16.28,4.2-26.83-4.74-24.76-11.31-30.42c0,0,6.12,18,6.12,27.06s-2.6,24.45-5.66,28.12-22,1.84-32.26-1.68-15.74-9.48-17.88-16.81-2-20.79-2-20.79-3.06.15-4,6.72,2.9,24,2.9,24-23.23-5.81-31.79-24.76S971,1684.11,977.08,1649s24.16-100.28,24.77-102.12,15.28-39.74,15.28-39.74-14.37,21.09-29.35,67.26-23.84,99.06-23.84,116.48-.31,58.4,3,67.57c0,0-2.14,4.59-6.42,4.59s-12.23.3-12.23.3l-.61,13.76s22.32-1.53,23.54-1.22,22.63,23.23,59.93,28.74,61.14,6.11,83.16,2.14,46.29-16,53.81-36.08c.22-.61,4.12-10.93,4.47-14.14,0,0,57.74,23.31,102.84,14.45s59.16-14.68,68.33-39.75-.92-48.08-.92-48.08l-12.84-18.8s34.85-21.32,46.32-109.37-48.15-166.47-48.15-166.47-38.07-47.93-65.35-62.83c0,0-6.19-67.88-27.29-102.27s-25.22-41-25.22-41,88.66-29.57,144.3-54,83.47-47.39,83.47-47.39l-73.38,6.11s122-51,155-106.7l-34.86,1.84S1528,935.68,1532.9,904.18Z"/><path class="cls-10" d="M1139.27,1694.35l65.58-305.88L1157.62,1648s50-23.39,98.6-6.88c0,0-63.29-9.17-98.14,11,0,0-3.06,1.83-4.59,6.88S1141.41,1698.48,1139.27,1694.35Z"/><path class="cls-10" d="M1292.29,1473.76s-23.84,18.65-37.3,59.93-8.56,69.09-8.56,69.09-5.81-38.82.92-67S1292.29,1473.76,1292.29,1473.76Z"/><path class="cls-10" d="M1274.56,428.77s-24.46-19.26-49.22-14.37c0,0,57.17-66,112.51-84.08,0,0-63.29,13.15-128.1,81.94l-9.79,10.4s32.72-5.2,45.25-.92S1256.22,423.27,1274.56,428.77Z"/><path class="cls-11" d="M1262.18,815.22s29.81-14.22,63.74-5.51c0,0-6-12.84-40.81-14.67,0,0,14.67-72.92-34.4-121.07s-105.47-34.4-131.16-22-45.4,46.31-52.73,57.78c0,0,34.85-45.4,83-50s85.76,24.31,97.68,45.86C1247.5,705.61,1288.78,750.55,1262.18,815.22Z"/><path class="cls-10" d="M1137.44,668.92s59.62-8.71,90.34,51.83,8.26,122-29.81,134.82-104.56-11.46-116-31.64-28.43-44-19.26-83.92S1104,675.34,1137.44,668.92Z"/><path class="cls-12" d="M1141.34,672.13a41.44,41.44,0,0,1,29.35,29.58c6.65,24.77-5.51,56.64-22.7,57.1s-33.71-20.41-35.09-38.52S1111.53,672.13,1141.34,672.13Z"/><path class="cls-11" d="M947.27,919.47c.62.15,23.55-.92,41.28,17.73,0,0-.92,11.62-11.93,25.38s-21.55,17.73-29,17.73l-.31,7.19s18.5,1.83,36.08-21.56S1000.62,893,1000.62,893s30.27,6.26,47.09-9.94,8.86-28.13,6.42-28.74.3,13.15-8.26,18.65-20.18,16.51-46.16,8.56S963.32,859.85,959,850.68s-6.42-30.88-6.42-30.88,10.78.92,17.66-11.92c0,0,15.82-2.52,18.11-10.32s0-14-12.38-17.88-27.74-2.53-27.74-2.53l-.23,8.26s18.34-1.84,29.58,2.52,2.06,11-.69,11.69-9.86,0-11.46,1.61-1.61,7.57-6,9.63-11,2.52-11,2.52L948,832.87s2.52,31.65,26.6,44.26l19.26,11.69s.92,27.75-4.82,38.75c0,0-18.57-10.7-35.69-14.06l-5.81-.15Z"/><ellipse class="cls-4" cx="1287.63" cy="877.7" rx="57.78" ry="27.86"/><path class="cls-2" d="M1060.85,678.1c2.3-.92,42.19-58.25,63.75-74.3,0,0-20.64,6.88-42.19,31.19,0,0,3.21-13.3-4.13-11.47S1060.85,678.1,1060.85,678.1Z"/><path class="cls-10" d="M1406.64,885.61s125.19-72.23,309.55-97c0,0,70.17-6.42,110.52-.92,0,0,0,10.09-30.26,11s-140.34,7.33-222.88,29.35S1434.15,887.22,1406.64,885.61Z"/><path class="cls-10" d="M1378.37,928.89s127-39.7,247.6-35.41,160.67,53.39,160.67,53.39-3.72,5.14-39.55-17.39-135.33-33.29-188.26-29.78S1378.37,928.89,1378.37,928.89Z"/><path class="cls-10" d="M886.3,353s22.93-6.88,40.81-34.4,21.56-58.7,21.56-58.7,10.55,17,6.88,40.82c0,0,48.15-8.71,70.16-33.94,0,0-2.29,36.69-32.56,50.45,0,0,22,20.64,67.88,25.68l-78,5-16.51.92s32.34-6.65,57.56-7.34c0,0-33-14.44-37.84-21.32l-3-4.13s21.33-7.11,34.4-35.77a116.86,116.86,0,0,1-43.34,20.41l-25.68,6s8.25-17.43,1.07-33.48c0,0-4.28,23.24-11.16,36.84s-22,29.66-27.52,33.79S886.3,353,886.3,353Z"/><path class="cls-10" d="M1361.41,1474.68s29.35,31.64,48.61,7.8,9.63-75.67,14.22-103.19,16.51-137.35,122.44-159.36,150,74.29,161.66,106.62,20.63,121.07-12.38,187.8-117,145.83-208.44,163-154.77-.69-154.77-.69l-2.3-4.81s51.82,13.07,92.18,8.94,97.3-10.16,150.5-46.24,82.85-65.12,109.14-113.73,27.21-82.4,28.59-119.09-18.34-94.93-36.69-122.9-56.41-48.15-85.76-55.95-71.08,10.09-90.34,26.6-43.11,39-56.41,86.67-10.55,105.48-11.92,121.53-11.47,32.11-28.89,40.59-39.21-17.2-39.21-17.2Z"/><path class="cls-2" d="M931.3,1219.46l-49.13,20.11s33.63,2.75,37.91,8c0,0-14.67,24.46-15,34.24l-.3,9.79s19.26-26,31.18-31.8a166.45,166.45,0,0,0,17.43-9.48s-3.06,12.84,8.56,27.21c0,0,.92-31.79,3.36-43.41s27.27-35.51,27.27-35.51-30,21.45-34.3,35.51-19,12.54-23.85,15.29-11.31,9.17-11.31,8.25,11-19.26,9.78-19.26h-32.4Z"/><path class="cls-10" d="M992.6,1198.56s-16.25,10.39-24.05,35.66-3.76,50.26-3.76,50.26a51.85,51.85,0,0,1-14.33-30.12s-35.41,17.37-46.91,41.78c0,0-6.31-28.94,14.11-46.28,0,0-21.61-11.15-58.27-4.94l59.32-21.11,12.59-4.35s-23.59,12.29-43,18.38c0,0,28.78,3.92,34,8.19l3.22,2.54s-15,10.21-18.77,35.31a94.15,94.15,0,0,1,29.09-25.37l18.59-10.29s-2.55,15.33,6.56,26.19c0,0-1.81-19,.52-31s10.52-27.84,13.88-32.26S992.6,1198.56,992.6,1198.56Z"/></svg>