<?xml version="1.0" encoding="utf-8"?>
<!-- Generator: Adobe Illustrator 24.2.3, SVG Export Plug-In . SVG Version: 6.00 Build 0)  -->
<svg version="1.1" id="Layer_1" xmlns="http://www.w3.org/2000/svg" xmlns:xlink="http://www.w3.org/1999/xlink" x="0px" y="0px"
	 viewBox="0 0 2834.6 2834.6" style="enable-background:new 0 0 2834.6 2834.6;" xml:space="preserve">
<style type="text/css">
	.st0{clip-path:url(#SVGID_2_);fill:#FF8C64;}
	.st1{clip-path:url(#SVGID_2_);}
	.st2{fill:#00ADEE;stroke:#232020;stroke-width:32.4958;stroke-linecap:round;stroke-linejoin:round;stroke-miterlimit:10;}
	.st3{fill:#F6D5BD;stroke:#232020;stroke-width:32.4958;stroke-linecap:round;stroke-linejoin:round;stroke-miterlimit:10;}
	.st4{fill:#232020;stroke:#232020;stroke-width:32.4958;stroke-linecap:round;stroke-linejoin:round;stroke-miterlimit:10;}
	.st5{fill:url(#SVGID_3_);}
	.st6{fill:url(#SVGID_4_);}
	.st7{fill:#FFFFFF;}
	.st8{fill:none;stroke:#1B1818;stroke-width:32.4958;stroke-linecap:round;stroke-linejoin:round;stroke-miterlimit:10;}
	.st9{fill:#FFFFFF;stroke:#232020;stroke-width:32.4958;stroke-linecap:round;stroke-linejoin:round;stroke-miterlimit:10;}
	.st10{fill:none;stroke:#232020;stroke-width:32.4958;stroke-linecap:round;stroke-linejoin:round;stroke-miterlimit:10;}
	.st11{fill:#232020;}
	.st12{fill:#F6D5BD;}
</style>
<g>
	<defs>
		<rect id="SVGID_1_" x="0" y="0" width="2834.6" height="2834.6"/>
	</defs>
	<clipPath id="SVGID_2_">
		<use xlink:href="#SVGID_1_"  style="overflow:visible;"/>
	</clipPath>
	<rect x="0" y="0" class="st0" width="2834.6" height="2834.6"/>
	<g class="st1">
		<g>
			<g>
				<g>
					<g>
						<g>
							<g>
								<path class="st2" d="M799.7,3140.5c0,0,821.1,683.6,1773.3-175l-758.7,1.6l-680.2-129.2L799.7,3140.5z"/>
								<g>
									<g>
										<g>
											<g>
												<g>
													<g>
														<path class="st3" d="M2090.4,2947.1c-403.3-93.9-345.1,387.9-345.1,387.9c48.6,283.6,44.3,576.3,44.3,576.3
															c-167.3,251.8,21.6,259.6,21.6,259.6c359-12.6,377-632.3,377-632.3s151-393.5,358.4-591.5L2090.4,2947.1z"/>
													</g>
												</g>
											</g>
										</g>
									</g>
									<path class="st4" d="M1731.4,4031.3c0,0,62.3,75.3,239.6,82.5c0,0-97,82.8-189.3,51.7
										C1781.8,4165.4,1687.1,4141.5,1731.4,4031.3z"/>
								</g>
								<g>
									<g>
										<g>
											<g>
												<g>
													<g>
														<path class="st3" d="M1355.6,2940.4c404-95.1,347,386.6,347,386.6c-48,283.9-46.2,575.9-46.2,575.9
															c169.1,252.9-21.5,259.5-21.5,259.5c-357.2-11.5-375.8-631-375.8-631s-127-280.5-334.9-478.1L1355.6,2940.4z"/>
													</g>
												</g>
											</g>
										</g>
									</g>
									<path class="st4" d="M1717,4024c0,0-64.2,74.9-240.3,82.5c0,0,95.2,82.8,188.7,51.7C1665.4,4158.2,1758.9,4134.8,1717,4024
										z"/>
								</g>
								<path class="st2" d="M1897.6,2017.5l-688.6,56.9c21.6,216.9-123.5,587.9-123.5,587.9C831.4,2876.4,799.7,3140,799.7,3140
									c338-8.3,854,178.6,854,178.6c678.4,199,921.1-351.7,921.1-351.7S2404.6,2370.7,1897.6,2017.5z"/>
							</g>
						</g>
					</g>
				</g>
			</g>
		</g>
		<g>
			<g>
				<g>
					<g>
						<g>
							<g>
								<g>
									<g>
										<g>
											<g>
												<g>
													<g>
														<g>
															<g>
																<g>
																	<g>
																		<g>
																			<path class="st3" d="M2479.2,1072.2c213.4,443.7,158,972.9-416.6,1188.1c-460.4,172.4-975,26-1188.2-416.8
																				C661.7,1400.6,848.6,868.4,1292,655.8C1734.3,443.1,2266.9,629.5,2479.2,1072.2z"/>
																		</g>
																	</g>
																</g>
															</g>
														</g>
													</g>
												</g>
											</g>
										</g>
									</g>
									
										<radialGradient id="SVGID_3_" cx="-2867.4739" cy="-3864.4265" r="36.8713" gradientTransform="matrix(4.3947 -2.3835 2.3839 4.3941 23592.9727 11600.6465)" gradientUnits="userSpaceOnUse">
										<stop  offset="0" style="stop-color:#F6A6AA"/>
										<stop  offset="0.2816" style="stop-color:#F6AEAD"/>
										<stop  offset="0.711" style="stop-color:#F6C3B6"/>
										<stop  offset="1" style="stop-color:#F6D5BD"/>
									</radialGradient>
									<path class="st5" d="M1947.6,1380.4c40.9,93.4-1.2,202-95,243.2c-93,41-201.1-1.6-242.3-94.6
										c-41.1-93,1.3-202.3,94.7-243.2C1798.2,1244.6,1906.3,1287.5,1947.6,1380.4z"/>
									
										<radialGradient id="SVGID_4_" cx="-2749.4514" cy="-3867.5859" r="36.8711" gradientTransform="matrix(4.3947 -2.3835 2.3839 4.3941 23592.9727 11600.6465)" gradientUnits="userSpaceOnUse">
										<stop  offset="0" style="stop-color:#F6A6AA"/>
										<stop  offset="0.2816" style="stop-color:#F6AEAD"/>
										<stop  offset="0.711" style="stop-color:#F6C3B6"/>
										<stop  offset="1" style="stop-color:#F6D5BD"/>
									</radialGradient>
									<path class="st6" d="M2458.8,1085.4c41,93.3-1.2,202-95.3,243.1c-92.7,41-200.9-1.7-242.1-94.6
										c-41.2-93,1.3-202.4,94.7-243.4C2309.4,949.5,2417.6,992.5,2458.8,1085.4z"/>
								</g>
							</g>
						</g>
						<g>
							<path class="st4" d="M1934.6,637.3L1803,696.4l-147.4-108l29.5,176.8l-777.2,457.6c346.8,363.7,126.7,730.6,270.6,966.2
								c-130,53.9-450.7,146.3-644.5-152.4c0,0-595.9-402.8-105.2-1059.1c0,0-19.7-466.3,578.4-640.1c0,0,450.5-405.8,961.9,20.5
								c0,0,408.7,77.8,508.4,717.5C2477.4,1075.3,2350.4,773,1934.6,637.3z"/>
						</g>
					</g>
					<path class="st7" d="M797.2,1319c0,0-45.5,260.1,26.2,350c0,0,57,82.9,111.1,29.3c0,0,67.6-58.1-46.2-230.1L797.2,1319z"/>
					<path class="st8" d="M2479.2,1072.2c-1.1-2.4-2.4-4.7-3.5-7.1C2373.3,434.9,1969,357.8,1969,357.8
						c-511.5-426.3-961.9-20.5-961.9-20.5c-598,173.8-578.4,640.1-578.4,640.1C-61.9,1633.7,534,2036.5,534,2036.5
						c193.8,298.7,514.5,206.3,644.5,152.4c0-0.1-0.1-0.2-0.1-0.2c249.4,159.9,578.7,186.1,884.3,71.7
						C2637.2,2045.1,2692.6,1515.9,2479.2,1072.2z"/>
				</g>
			</g>
			<path class="st8" d="M2479.2,1072.2c-1.1-2.4-2.4-4.7-3.5-7.1C2373.3,434.9,1969,357.8,1969,357.8
				c-511.5-426.3-961.9-20.5-961.9-20.5c-598,173.8-578.4,640.1-578.4,640.1C-61.9,1633.7,534,2036.5,534,2036.5
				c193.8,298.7,514.5,206.3,644.5,152.4c249.3,159.8,578.7,185.8,884.2,71.5C2637.2,2045.1,2692.6,1515.9,2479.2,1072.2z"/>
			<g>
				<path class="st9" d="M1504.3,935.3c0,0-180.6,53.5-140.5,341c0,0,55.3,294.1,408,207.3c0,0,247.5-60.2,113.7-374.5
					C1885.5,1109.2,1791.9,835,1504.3,935.3z"/>
				<path class="st9" d="M2228.8,663.8c0,0-307.7-60.2-341.1,180.6c0,0-20.1,280.9,307.7,327.7c0,0,321,20.1,327.7-220.7
					C2523.1,951.3,2523.1,690.5,2228.8,663.8z"/>
				<path class="st10" d="M1930.2,2013.3c0,0,200.6,133.7,334.4-40.1"/>
				<path class="st11" d="M2165.3,944.6c0,16.6-13.5,30.1-30.1,30.1c-16.6,0-30.1-13.5-30.1-30.1c0-16.6,13.5-30.1,30.1-30.1
					C2151.8,914.5,2165.3,928,2165.3,944.6z"/>
				<path class="st11" d="M1715,1156c0,16.6-13.5,30.1-30.1,30.1c-16.6,0-30.1-13.5-30.1-30.1c0-16.6,13.5-30.1,30.1-30.1
					C1701.5,1125.9,1715,1139.4,1715,1156z"/>
				<path class="st10" d="M1144.9,1160.9c0,0-6.7,180.6,73.6,173.9c0,0,86.9-6.7,6.7-180.6"/>
				<path class="st10" d="M1169.1,1574c0,0-6.7,260.8,93.6,227.4c0,0,105.8-10.5-6.7-214"/>
				<path class="st10" d="M1476.6,1713c0,0,6.7,173.9,80.3,140.4c0,0,59.4-17.8,0-107"/>
				<path class="st4" d="M2082.9,1447.7c0,0-73.7,0-83.5,54c0,0-34.4,73.7,49.1,39.3c0,0,49.1-14.7,73.7-24.6
					c0,0,58.9-14.7,98.2-49.1c0,0,63.9-54-14.7-54C2205.7,1413.4,2200.8,1403.5,2082.9,1447.7z"/>
			</g>
		</g>
		<g>
			<g>
				<path class="st12" d="M1074.9,2472.6c0,0-72.1-49.7-34-187.1c0,0-1.9-97.4,103.3-69.1c0,0,9.9-75.4,61.9-82.3
					c0,0,51.2-19,83.8,35.1c0,0,88.7-40.9,111.6,45.3c0,0,73.1-61.3,112,49.7c0,0,84.8-6,61.5,104.1c0,0-9.4,125.3-90.8,152.1
					c0,0-26.5,602-356.3,509.9C1127.8,3030.3,875.3,2965.1,1074.9,2472.6z"/>
				<path class="st12" d="M1997.1,2527c0,0-97.6-54.1-100.2-180.2c0,0-40.8-103.9,59.9-94c0,0,22-63.5,87.5-47
					c0,0,12.7-74.7,107.7-53.3c0,0,17.8-52.5,72.4-40.1c0,0,50.9-3.5,74.9,71c0,0,65.2-35.1,100.6,60c0,0,49.2,118.7-33.3,172.8
					c0,0,278.7,405.6-19.3,501.4C2347.4,2917.7,2059.8,3034.5,1997.1,2527z"/>
				<path class="st3" d="M1002.7,2527.2c0,0-80.7-42.7-58.1-189.5c0,0-13.9-100.6,98.5-84.2c0,0,1.1-79.3,54-92.8
					c0,0,50.6-25.9,91,26.1c0,0,86.8-53.2,121.1,33.3c0,0,68.2-72.5,122.1,37.8c0,0,87-16.6,76.4,100.3c0,0,5.6,130.9-75.4,168.6
					c0,0-25,553.5-340,495.5C1092.3,3022.2,827,2976.6,1002.7,2527.2z"/>
				<path class="st10" d="M1043.1,2245.7c0,0-17.1,55.9-6,88.7"/>
				<path class="st3" d="M2060.4,2546.1c0,0-101.8-56.4-104.5-187.9c0,0-42.5-108.4,62.5-98c0,0,22.9-66.2,91.3-49
					c0,0,13.2-77.9,112.3-55.6c0,0,18.6-54.7,75.5-41.9c0,0,53.1-3.6,78.1,74.1c0,0,68-36.6,104.9,62.6c0,0,51.3,123.7-34.7,180.2
					c0,0,263.3,453.5-17.7,579.7C2428.1,3010.3,2094.3,3132.4,2060.4,2546.1z"/>
				<path class="st10" d="M2375.6,2187.8c0,0,59.3,113.2,37.8,170.4"/>
			</g>
		</g>
	</g>
</g>
</svg>
